# xmcd
#
# Track frame offsets:
#	150
#	14911
#	34471
#	53827
#	70584
#	88308
#	108145
#	124671
#	140495
#	158182
#	175177
#	188802
#	204844
#	220567
#	237091
#	252105
#	265618
#	281836
#	298080
#	312967
#
# Disc length: 4395 seconds
#
# Revision: 1
# Processed by: cddbd v1.5.2PL0 Copyright (c) Steve Scherf et al.
# Submitted via: audiograbber 1.83.01
#
DISCID=24112914
DTITLE=Various Artist - ERG NCT 150
DYEAR=2006
DGENRE=Country
TTITLE0=Jimmy Buffet - Bama Breeze
TTITLE1=Brooks and Dunn - Hillbily Deluxe
TTITLE2=Darryl Worley - I Just Came Back (From A War)
TTITLE3=Gary Nichols - I Can't Love You Anymore
TTITLE4=Jason McCoy - I'm Not Running Anymore
TTITLE5=Jason Michael Carroll - Alyssa Lies
TTITLE6=Taylor Swift - Tim McGraw
TTITLE7=Mark Wills - Take It All Out On Me
TTITLE8=Rockie Lynne - More
TTITLE9=Blue County - I Get To
TTITLE10=Danielle Peck - Isn't That Everything
TTITLE11=Gary Allan - Feeling Like That, A
TTITLE12=Steve Holy - Come On Rain
TTITLE13=Josh Gracin - I Keep Coming Back
TTITLE14=Jimmy Wayne - That's All I'll Ever Need
TTITLE15=Josh Turner ft. Dr. Ralph Stanley, Marty Roe, Dana Williams and Gene J
TTITLE15=ohnson of Diamond Rio - Me And God
TTITLE16=Doc Walker - Trying To Get Back To You
TTITLE17=Lisa Hewitt - Somebody
TTITLE18=Sonny Burgess - Little Bit Stronger, A
TTITLE19=Todd Fritsch and Gary P. Nunn - Every Honky Tonkin' Hero (Has His Day)
EXTD=
EXTT0=
EXTT1=
EXTT2=
EXTT3=
EXTT4=
EXTT5=
EXTT6=
EXTT7=
EXTT8=
EXTT9=
EXTT10=
EXTT11=
EXTT12=
EXTT13=
EXTT14=
EXTT15=
EXTT16=
EXTT17=
EXTT18=
EXTT19=
PLAYORDER=
